<!--?xml version="1.0" encoding="utf-8"?-->
<!-- Generator: Adobe Illustrator 18.1.1, SVG Export Plug-In . SVG Version: 6.00 Build 0)  -->

<svg version="1.1" id="_x32_" xmlns="http://www.w3.org/2000/svg" xmlns:xlink="http://www.w3.org/1999/xlink" x="0px" y="0px" viewBox="0 0 512 512" style="width: 256px; height: 256px; opacity: 1;" xml:space="preserve">
<style type="text/css">
	.st0{fill:#4B4B4B;}
</style>
<g>
	<path class="st0" d="M392.081,0H119.92C96.827,0,78.102,18.72,78.102,41.822v428.356C78.102,493.28,96.827,512,119.92,512h272.161
		c23.093,0,41.818-18.72,41.818-41.822V41.822C433.898,18.72,415.174,0,392.081,0z M226.746,228.178l21.779-66.991l7.483-22.992
		l27.212,83.695h-16.543l-10.67-32.822l-12.72,39.11l-5.118,15.72l-8.975,27.611l-13.348-9.695l5.805-17.916L226.746,228.178z
		 M244.797,243.898l5.102-15.72h129.975l-71.204,51.763l-5.119-15.721v-0.025l27.942-20.297H244.797z M215.051,243.898h-34.542
		l33.28,24.195l13.372,9.704h0.009l23.491,17.059l-13.364,9.738l-15.238-11.068l-13.364-9.72l-0.018,0.008l-76.551-55.636h88.017
		L215.051,243.898z M119.166,69.847c0.008-13.212,10.708-23.924,23.928-23.924h38.708v9.11h-24.586l-28.931,28.94v24.577h-9.119
		V69.847z M143.085,466.076c-13.211-0.009-23.928-10.712-23.919-23.932l-0.009-38.704h9.11l0.009,24.585l28.937,28.941h24.58
		l0.009,9.11H143.085z M179.432,373.805l27.212-83.721l13.382,9.72l-10.678,32.856l33.297-24.186l13.364-9.721l23.458-17.05
		l5.118,15.72l-15.22,11.051l-13.356,9.712L179.432,373.805z M274.704,312.364l27.949,20.297l-12.703-39.136l-5.119-15.729
		l-8.966-27.602h16.517l5.831,17.898l5.102,15.712l0.009,0.008l29.246,89.992l-71.212-51.73L274.704,312.364z M392.835,442.144
		c-0.009,13.22-10.708,23.924-23.928,23.924h-38.708v-9.102h24.586l28.932-28.95V403.44h9.119V442.144z M383.734,108.551
		l-0.009-24.584l-28.936-28.941h-24.58l-0.009-9.11h38.717c13.211,0.008,23.928,10.712,23.919,23.932l0.008,38.704H383.734z" style="fill: rgb(75, 75, 75);"></path>
</g>
</svg>
